<?xml version="1.0" encoding="UTF-8" standalone="no"?>
<!-- Created with Inkscape (http://www.inkscape.org/) -->

<svg
   width="1000"
   height="709.289"
   viewBox="0 0 264.58333 187.66604"
   version="1.1"
   id="svg1"
   sodipodi:docname="RH-logo.svg"
   inkscape:version="1.3.2 (091e20e, 2023-11-25)"
   inkscape:export-filename="RH-logo.pdf"
   inkscape:export-xdpi="96"
   inkscape:export-ydpi="96"
   xmlns:inkscape="http://www.inkscape.org/namespaces/inkscape"
   xmlns:sodipodi="http://sodipodi.sourceforge.net/DTD/sodipodi-0.dtd"
   xmlns="http://www.w3.org/2000/svg"
   xmlns:svg="http://www.w3.org/2000/svg">
  <sodipodi:namedview
     id="namedview1"
     pagecolor="#ffffff"
     bordercolor="#000000"
     borderopacity="0.25"
     inkscape:showpageshadow="2"
     inkscape:pageopacity="0.0"
     inkscape:pagecheckerboard="true"
     inkscape:deskcolor="#d1d1d1"
     inkscape:document-units="mm"
     inkscape:zoom="0.581884"
     inkscape:cx="425.34251"
     inkscape:cy="353.16317"
     inkscape:window-width="1504"
     inkscape:window-height="912"
     inkscape:window-x="5"
     inkscape:window-y="37"
     inkscape:window-maximized="0"
     inkscape:current-layer="layer1" />
  <defs
     id="defs1" />
  <g
     inkscape:label="Layer 1"
     inkscape:groupmode="layer"
     id="layer1">
    <path
       id="text1"
       style="font-weight:bold;font-size:107.796px;font-family:'DIN Condensed';-inkscape-font-specification:'DIN Condensed,  Bold';letter-spacing:0px;display:inline;stroke-width:0.600001;fill:#ffffff;fill-opacity:1"
       inkscape:label="text1"
       d="M 0,0 V 76.735885 H 10.997261 V 43.97251 h 6.57686 l 10.242786,32.763375 h 11.64425 L 27.601416,41.709082 c 3.522028,-1.939943 5.965651,-4.490858 7.331335,-7.652246 1.437563,-3.161388 2.156458,-7.005062 2.156458,-11.531596 C 37.089209,7.5086441 30.620184,0 17.682125,0 Z m 127.11679,0 v 76.735885 h 10.99726 V 39.984639 c 0,-2.442891 0.39531,-4.311013 1.18597,-5.604308 0.79067,-1.293296 2.22846,-1.939933 4.31292,-1.939933 1.72506,0 3.05449,0.574846 3.9889,1.724442 0.93442,1.149595 1.40199,2.730036 1.40199,4.741829 l -2e-5,59.922957 h 10.99741 l -1.3e-4,-64.018315 c 0,-2.44289 -0.32359,-4.490749 -0.97048,-6.143294 -0.64691,-1.724393 -1.50927,-3.125098 -2.58744,-4.202844 -1.07818,-1.077746 -2.30026,-1.832329 -3.66593,-2.263427 -1.36568,-0.502949 -2.73122,-0.754476 -4.09691,-0.754476 -2.51573,0 -4.60017,0.574846 -6.25336,1.724442 -1.58132,1.077747 -2.94738,2.478967 -4.09743,4.203362 h -0.21549 V 0 Z m 121.07897,0 v 62.078381 c 0,3.233239 0.35919,5.855944 1.07798,7.867737 0.79065,1.939943 1.9048,3.448592 3.34237,4.526339 1.43756,1.149596 3.1628,1.904179 5.17539,2.263428 2.01259,0.431098 4.27661,0.646472 6.79235,0.646472 V 67.036219 c -2.08447,-0.21555 -3.52169,-0.682969 -4.31235,-1.401466 -0.71877,-0.790347 -1.07849,-2.227205 -1.07849,-4.310848 V 0 Z M 10.997261,10.346655 h 5.71438 c 3.80954,0 6.397151,1.005595 7.762834,3.017388 0.646903,1.077746 1.078343,2.371021 1.293978,3.879866 0.215634,1.436995 0.323495,3.125897 0.323495,5.06584 0,1.939944 -0.107861,3.663966 -0.323495,5.172811 -0.215635,1.436995 -0.610949,2.658479 -1.185974,3.664376 -0.646903,1.005896 -1.545394,1.796633 -2.695443,2.371432 -1.150049,0.502947 -2.6957,0.753959 -4.636409,0.753959 h -6.253366 z m 49.59594,11.100615 c -2.515735,0 -4.779764,0.431264 -6.792351,1.29346 -2.012587,0.790348 -3.737832,1.903888 -5.175394,3.340882 -3.018881,3.017689 -4.671875,6.969308 -4.959387,11.85509 h 10.673767 c 0.35939,-1.796243 1.114412,-3.16131 2.26446,-4.095357 1.221929,-0.934047 2.551342,-1.400947 3.988905,-1.400947 2.084464,0 3.522256,0.610483 4.312915,1.831929 0.790659,1.221446 1.185974,2.766249 1.185974,4.634342 v 5.712313 c -0.575025,-0.07186 -1.114326,-0.108003 -1.617472,-0.108003 -0.503148,0 -0.934071,-0.03564 -1.293462,-0.107488 -0.35939,-0.07186 -0.754705,-0.108004 -1.185974,-0.108004 h -1.185974 c -3.45015,0 -6.289605,0.395111 -8.517826,1.185458 -2.228221,0.718497 -3.989076,1.832553 -5.282881,3.341398 -1.365685,1.580694 -2.3003,3.556246 -2.803448,5.927286 -0.503146,2.299192 -0.754476,4.993689 -0.754476,8.083228 0,3.01769 0.35919,5.496295 1.077971,7.436238 0.790659,1.868095 1.79701,3.305469 3.018937,4.311365 1.221928,1.077747 2.479607,1.796176 3.773414,2.155425 1.365683,0.431098 2.695614,0.646472 3.98942,0.646472 2.65949,0 4.708315,-0.538693 6.145878,-1.616439 1.50944,-1.077746 2.98284,-2.62255 4.420402,-4.634343 h 0.215491 v 5.60431 H 77.089351 V 38.691178 c 0,-2.873989 -0.430924,-5.38875 -1.293461,-7.544242 C 74.933353,28.991443 73.783017,27.195113 72.345455,25.758118 70.836014,24.321122 69.075161,23.243737 67.062574,22.52524 65.049986,21.806743 62.8933,21.44727 60.593201,21.44727 Z m 46.038009,0 c -2.73135,0 -4.8158,0.539209 -6.25336,1.616956 -1.437563,1.077746 -2.838708,2.406658 -4.204392,3.987352 V 22.093742 H 85.175679 l 4.6e-5,76.735884 h 10.997671 l 6.2e-5,-27.051578 h 0.21549 c 1.221929,1.796243 2.659205,3.197464 4.312392,4.203361 1.72508,0.934046 3.66605,1.400948 5.82239,1.400948 2.73136,0 4.8158,-0.466902 6.25337,-1.400948 2.87512,-1.796244 4.52812,-4.490741 4.95939,-8.083228 0.21563,-1.796244 0.32349,-4.706113 0.32349,-8.729699 V 38.3682 c 0,-3.017689 -0.14348,-5.425021 -0.43098,-7.221264 -0.28752,-1.796244 -0.75509,-3.304893 -1.40198,-4.526339 -1.86884,-3.448788 -5.06748,-5.173327 -9.59581,-5.173327 z m 77.736,0 c -2.51574,0 -4.77977,0.431264 -6.79235,1.29346 -2.01259,0.790348 -3.73783,1.903888 -5.17539,3.340882 -3.01889,3.017689 -4.67188,6.969308 -4.95939,11.85509 h 10.67376 c 0.35939,-1.796243 1.11442,-3.16131 2.26446,-4.095357 1.22193,-0.934047 2.55134,-1.400947 3.98891,-1.400947 2.08446,0 3.52225,0.610483 4.31291,1.831929 0.79065,1.221446 1.18605,2.766249 1.18603,4.634342 l -6e-5,5.712313 c -0.57501,-0.07186 -1.11432,-0.108003 -1.61747,-0.108003 -0.50315,0 -0.93406,-0.03564 -1.29345,-0.107488 -0.35939,-0.07186 -0.7547,-0.108004 -1.18598,-0.108004 h -1.18597 c -3.45015,0 -6.2896,0.395111 -8.51783,1.185458 -2.22822,0.718497 -3.98908,1.832553 -5.28288,3.341398 -1.36568,1.580694 -2.3003,3.556246 -2.80345,5.927286 -0.50315,2.299192 -0.75448,4.993689 -0.75448,8.083228 0,3.01769 0.35919,5.496295 1.07798,7.436238 0.79066,1.868095 1.797,3.305469 3.01893,4.311365 1.22193,1.077747 2.47961,1.796176 3.77342,2.155425 1.36568,0.431098 2.69561,0.646472 3.98941,0.646472 2.6595,0 4.7078,-0.538693 6.14537,-1.616439 1.50945,-1.077746 2.98336,-2.62255 4.42092,-4.634343 h 0.21548 v 5.60431 h 10.99727 l 6e-5,-38.044707 c 0,-2.873989 -0.43144,-5.38875 -1.29398,-7.544242 -0.86254,-2.155493 -2.01236,-3.951823 -3.44991,-5.388818 -1.50945,-1.436996 -3.27031,-2.514381 -5.28289,-3.232878 -2.01258,-0.718497 -4.16933,-1.07797 -6.46943,-1.07797 z m 40.00104,0 c -3.45015,0 -6.39746,0.718429 -8.84132,2.155423 -2.37198,1.436996 -4.20457,3.341272 -5.49838,5.712314 -0.79066,1.436995 -1.32996,3.089227 -1.61747,4.95732 -0.28751,1.868093 -0.43149,3.915952 -0.43149,6.143294 v 17.998385 c 0,2.227341 0.14398,4.275201 0.43149,6.143294 0.28751,1.868093 0.82675,3.520325 1.61741,4.95732 1.29381,2.371041 3.1264,4.275318 5.49838,5.712313 2.44386,1.436995 5.39117,2.155424 8.84132,2.155424 2.51573,0 4.77976,-0.431265 6.79235,-1.293462 2.01258,-0.862196 3.73789,-2.047526 5.17545,-3.556371 2.94702,-2.94584 4.42041,-6.825667 4.42041,-11.6396 h -10.99726 c -0.14376,1.221445 -0.57521,2.44293 -1.29399,3.664376 -0.6469,1.221446 -2.01245,1.831929 -4.0969,1.831929 -1.65319,0 -2.98313,-0.466901 -3.98943,-1.400948 -0.93441,-0.934047 -1.40146,-2.262959 -1.40146,-3.987353 V 53.564172 H 240.7564 V 38.475688 c 0,-4.885782 -1.4378,-8.945347 -4.31293,-12.178585 -1.43754,-1.508845 -3.19841,-2.694175 -5.28287,-3.556373 -2.01258,-0.862196 -4.27662,-1.29346 -6.79235,-1.29346 z M 101.67183,32.440398 c 1.86882,0 3.23436,0.682791 4.0969,2.047936 0.86254,1.365146 1.29399,3.16096 1.29399,5.388301 v 20.046322 c 0,1.724395 -0.39532,3.233044 -1.18597,4.526339 -0.71879,1.293295 -2.12046,1.939933 -4.20492,1.939933 -1.58132,0 -2.911249,-0.538692 -3.98942,-1.616439 -1.006294,-1.149596 -1.508952,-2.586454 -1.508952,-4.310847 v -21.23178 c 0,-2.011793 0.502658,-3.628387 1.508952,-4.849832 1.006293,-1.293296 2.33622,-1.939933 3.98942,-1.939933 z m 122.69642,0 c 1.65319,0 2.947,0.538692 3.88142,1.616438 1.0063,1.005897 1.50947,2.5507 1.50947,4.634342 v 6.251298 h -10.78178 v -6.251298 c 0,-2.083642 0.46705,-3.628445 1.40145,-4.634342 1.0063,-1.077746 2.33625,-1.616438 3.98944,-1.616438 z M 63.073152,52.9177 c 0.79066,0 1.79701,0.107429 3.018938,0.322978 v 7.436755 c 0,2.227342 -0.5393,3.951882 -1.617472,5.173328 -1.006294,1.221446 -2.443568,1.831929 -4.312398,1.831929 -1.796954,0 -3.198619,-0.646637 -4.204912,-1.939933 -1.006294,-1.293296 -1.509469,-2.981681 -1.509469,-5.065324 0,-2.945839 0.826756,-4.957544 2.479952,-6.035291 1.725075,-1.149595 3.773385,-1.724442 6.145361,-1.724442 z m 123.774008,0 c 0.79066,0 1.79701,0.107429 3.01893,0.322978 v 7.436755 c 0,2.227342 -0.53929,3.951882 -1.61747,5.173328 -1.00629,1.221446 -2.44356,1.831929 -4.3124,1.831929 -1.79694,0 -3.19862,-0.646637 -4.20491,-1.939933 -1.0063,-1.293296 -1.50947,-2.981681 -1.50947,-5.065324 0,-2.945839 0.82677,-4.957544 2.47995,-6.035291 1.72508,-1.149595 3.7734,-1.724442 6.14537,-1.724442 z M 0,87.792574 V 164.8349 H 11.041186 V 130.53364 H 24.680664 V 164.8349 H 35.72185 V 87.792574 H 24.680664 V 120.79521 H 11.041186 V 87.792574 Z m 128.0511,0 v 27.159576 h -0.21653 c -1.2268,-1.80342 -2.70651,-3.1741 -4.43849,-4.11189 -1.6598,-1.00992 -3.57215,-1.51515 -5.73711,-1.51515 -2.74229,0 -4.79903,0.46936 -6.17017,1.40715 -2.95879,1.80343 -4.65455,4.50842 -5.08754,8.11526 -0.21649,1.87556 -0.32453,4.79731 -0.32453,8.76484 v 20.88348 c 0,3.02975 0.14438,5.44627 0.43305,7.24969 0.28866,1.80343 0.75765,3.31861 1.40715,4.54494 1.80413,3.46258 5.01544,5.19349 9.63403,5.19349 1.37114,0 2.56157,-0.14399 3.57187,-0.43254 1.01032,-0.28855 1.91248,-0.68566 2.70631,-1.19062 0.79381,-0.50496 1.51574,-1.08193 2.16524,-1.73116 0.64948,-0.72137 1.33507,-1.4787 2.05672,-2.27221 v 4.97747 h 11.04118 V 87.792574 Z m 61.1347,21.532536 c -2.52579,0 -4.61837,0.57749 -6.27816,1.73167 -1.58765,1.08206 -2.9588,2.48862 -4.11346,4.21991 h -0.21652 v -5.302 h -11.0417 v 54.86021 h 11.0417 v -36.89801 c 0,-2.45266 0.3968,-4.32857 1.19063,-5.62704 0.79381,-1.29846 2.23717,-1.94768 4.32997,-1.94768 1.73196,0 3.06677,0.57748 4.00492,1.73167 0.93816,1.1542 1.40767,2.74111 1.40767,4.76095 v 37.98011 h 11.04119 v -42.092 c 0,-2.45267 -0.32462,-4.50843 -0.9741,-6.16759 -0.6495,-1.73129 -1.51581,-3.13836 -2.5983,-4.22041 -1.08248,-1.08206 -2.30925,-1.83939 -3.68039,-2.27222 -1.37114,-0.50496 -2.7423,-0.75757 -4.11345,-0.75757 z m 30.25691,4.1e-4 c -2.74229,0 -4.79902,0.46936 -6.17016,1.40715 -2.95879,1.80343 -4.65455,4.50842 -5.08755,8.11526 -0.21649,1.87556 -0.32504,4.79731 -0.32504,8.76484 v 20.88348 c 0,3.02975 0.14438,5.44627 0.43305,7.24969 0.28865,1.80343 0.75764,3.31861 1.40714,4.54494 1.80414,3.46258 5.01544,5.19349 9.63404,5.19349 2.23713,0 4.18583,-0.46885 5.84565,-1.40664 1.73196,-1.00991 3.21115,-2.41646 4.43796,-4.21989 h 0.21653 v 10.82052 c 0,1.73129 -0.39679,3.13784 -1.19063,4.2199 -0.79383,1.1542 -2.09277,1.73168 -3.89691,1.73168 -1.8763,0 -3.31965,-0.57748 -4.32997,-1.73168 -0.93817,-1.15419 -1.44304,-2.38038 -1.51516,-3.67885 h -11.04169 c 0.36081,3.24617 1.08275,5.87891 2.16524,7.89875 1.15464,2.09197 2.52579,3.75115 4.11344,4.97747 1.51548,1.29847 3.17488,2.20031 4.97902,2.70527 1.80414,0.57708 3.53627,0.86558 5.19606,0.86558 2.88662,0 5.37651,-0.50472 7.46932,-1.51464 2.0928,-0.93779 3.82492,-2.20035 5.19606,-3.78737 1.37114,-1.51488 2.34498,-3.24629 2.92231,-5.194 0.64949,-1.87555 0.97462,-3.75097 0.97462,-5.62653 V 109.9751 h -11.04171 v 4.97746 c -0.72165,-0.79351 -1.40723,-1.51497 -2.05672,-2.1642 -0.6495,-0.72137 -1.37091,-1.33473 -2.16473,-1.83969 -0.79382,-0.50496 -1.69597,-0.90155 -2.70629,-1.1901 -0.93816,-0.28855 -2.09273,-0.43305 -3.46388,-0.43305 z m -177.841632,0.64917 14.289051,54.86021 h 9.74204 L 79.92122,109.97469 H 68.230461 L 60.869669,145.033 h -0.216523 l -7.361308,-35.05831 z m 43.574647,0 v 54.86021 h 10.997671 v -54.86021 z m 63.828085,0 v 54.86021 h 11.00587 l -0.0169,-54.86021 z m -26.47331,10.38748 c 1.58765,0 2.88661,0.57748 3.89692,1.73167 1.08249,1.08206 1.62368,2.48861 1.62368,4.2199 v 21.31652 c 0,2.01984 -0.50536,3.67902 -1.51567,4.97748 -1.01032,1.22633 -2.34512,1.83917 -4.00493,1.83917 -1.8763,0 -3.24746,-0.6851 -4.11344,-2.0557 -0.86599,-1.37061 -1.29915,-3.17427 -1.29915,-5.41052 v -20.1259 c 0,-1.73128 0.36098,-3.24647 1.08263,-4.54494 0.79382,-1.29846 2.23716,-1.94768 4.32996,-1.94768 z m 101.78323,4.1e-4 c 1.6598,0 2.99513,0.64922 4.00544,1.94768 1.01032,1.22633 1.51516,2.84963 1.51516,4.86947 v 21.31652 c 0,1.73129 -0.5412,3.17422 -1.62367,4.32843 -1.01031,1.08205 -2.30929,1.62264 -3.89693,1.62264 -2.0928,0 -3.53614,-0.64922 -4.32997,-1.94769 -0.72165,-1.29846 -1.0821,-2.81314 -1.0821,-4.54442 v -20.12643 c 0,-2.23625 0.43263,-4.0394 1.29862,-5.41 0.86599,-1.3706 2.23716,-2.0562 4.11345,-2.0562 z"
       sodipodi:nodetypes="cccccccccssccccsssssccscscsccccccsccccccscccsccscccsccscscccssscsssscccscccscccccsscssssccccccccscsssscsscscccssscsssscccscccscccccsscsssccssssccssccccscsccsccssssscscsscsscsccscsscscssscsscscssscscccccccccccccccccsccssscsssccccccscccccccsssssccscscssccssscscccscsccccccscccsccccscscccccccccccccccccccscsscsssscsscsscscssss" />
    <path
       id="text1-4"
       style="font-weight:bold;font-size:107.796px;font-family:'DIN Condensed';-inkscape-font-specification:'DIN Condensed,  Bold';letter-spacing:0px;display:none;stroke-width:0.600001"
       inkscape:label="text1"
       d="m 87.3125,25.4 v 76.73589 H 98.309761 V 69.37251 h 6.576859 l 10.24279,32.76338 h 11.64425 L 114.91392,67.109082 c 3.52202,-1.939943 5.96565,-4.490858 7.33133,-7.652246 1.43756,-3.161388 2.15646,-7.005062 2.15646,-11.531596 0,-15.016596 -6.46903,-22.52524 -19.40708,-22.52524 z m 127.11679,0 v 76.73589 h 10.99726 V 65.384639 c 0,-2.442891 0.39531,-4.311013 1.18597,-5.604308 0.79067,-1.293296 2.22846,-1.939933 4.31292,-1.939933 1.72506,0 3.05449,0.574846 3.9889,1.724442 0.93442,1.149595 1.40199,2.730036 1.40199,4.741829 l -2e-5,59.922961 h 10.99741 l -1.3e-4,-64.018319 c 0,-2.44289 -0.32359,-4.490749 -0.97048,-6.143294 -0.64691,-1.724393 -1.50927,-3.125098 -2.58744,-4.202844 -1.07818,-1.077746 -2.30026,-1.832329 -3.66593,-2.263427 -1.36568,-0.502949 -2.73122,-0.754476 -4.09691,-0.754476 -2.51573,0 -4.60017,0.574846 -6.25336,1.724442 -1.58132,1.077747 -2.94738,2.478967 -4.09743,4.203362 h -0.21549 V 25.4 Z m 121.07897,0 v 62.078381 c 0,3.233239 0.35919,5.855944 1.07798,7.867737 0.79065,1.939943 1.9048,3.448592 3.34237,4.526339 1.43756,1.149593 3.1628,1.904183 5.17539,2.263433 2.01259,0.43109 4.27661,0.64647 6.79235,0.64647 V 92.436219 c -2.08447,-0.21555 -3.52169,-0.682969 -4.31235,-1.401466 -0.71877,-0.790347 -1.07849,-2.227205 -1.07849,-4.310848 V 25.4 Z M 98.309761,35.746655 h 5.714379 c 3.80954,0 6.39715,1.005595 7.76283,3.017388 0.64691,1.077746 1.07835,2.371021 1.29398,3.879866 0.21564,1.436995 0.3235,3.125897 0.3235,5.06584 0,1.939944 -0.10786,3.663966 -0.3235,5.172811 -0.21563,1.436995 -0.61095,2.658479 -1.18597,3.664376 -0.6469,1.005896 -1.5454,1.796633 -2.69544,2.371432 -1.15005,0.502947 -2.6957,0.753959 -4.63641,0.753959 H 98.309761 Z M 147.9057,46.84727 c -2.51573,0 -4.77976,0.431264 -6.79235,1.29346 -2.01259,0.790348 -3.73783,1.903888 -5.17539,3.340882 -3.01889,3.017689 -4.67188,6.969308 -4.95939,11.85509 h 10.67377 c 0.35939,-1.796243 1.11441,-3.16131 2.26446,-4.095357 1.22192,-0.934047 2.55134,-1.400947 3.9889,-1.400947 2.08446,0 3.52226,0.610483 4.31292,1.831929 0.79065,1.221446 1.18597,2.766249 1.18597,4.634342 v 5.712313 c -0.57503,-0.07186 -1.11433,-0.108003 -1.61747,-0.108003 -0.50315,0 -0.93407,-0.03564 -1.29346,-0.107488 -0.35939,-0.07186 -0.75471,-0.108004 -1.18598,-0.108004 h -1.18597 c -3.45015,0 -6.28961,0.395111 -8.51783,1.185458 -2.22822,0.718497 -3.98907,1.832553 -5.28288,3.341398 -1.36568,1.580694 -2.3003,3.556246 -2.80345,5.927286 -0.50314,2.299192 -0.75447,4.993689 -0.75447,8.083228 0,3.01769 0.35919,5.496295 1.07797,7.436238 0.79066,1.868095 1.79701,3.305469 3.01893,4.311365 1.22193,1.07775 2.47961,1.79618 3.77342,2.15542 1.36568,0.4311 2.69561,0.64648 3.98942,0.64648 2.65949,0 4.70831,-0.5387 6.14588,-1.61644 1.50944,-1.07775 2.98284,-2.622552 4.4204,-4.634345 h 0.21549 v 5.604305 h 10.99726 V 64.091178 c 0,-2.873989 -0.43092,-5.38875 -1.29346,-7.544242 -0.86254,-2.155493 -2.01287,-3.951823 -3.45043,-5.388818 -1.50945,-1.436996 -3.2703,-2.514381 -5.28289,-3.232878 -2.01258,-0.718497 -4.16927,-1.07797 -6.46937,-1.07797 z m 46.03801,0 c -2.73135,0 -4.8158,0.539209 -6.25336,1.616956 -1.43756,1.077746 -2.83871,2.406658 -4.20439,3.987352 v -4.957836 h -10.99778 l 4e-5,76.735888 h 10.99768 l 6e-5,-27.051582 h 0.21549 c 1.22193,1.796243 2.6592,3.197462 4.31239,4.203362 1.72508,0.93404 3.66605,1.40095 5.82239,1.40095 2.73136,0 4.8158,-0.46691 6.25337,-1.40095 2.87512,-1.796245 4.52812,-4.490742 4.95939,-8.083229 0.21563,-1.796244 0.32349,-4.706113 0.32349,-8.729699 V 63.7682 c 0,-3.017689 -0.14348,-5.425021 -0.43098,-7.221264 -0.28752,-1.796244 -0.75509,-3.304893 -1.40198,-4.526339 -1.86884,-3.448788 -5.06748,-5.173327 -9.59581,-5.173327 z m 77.736,0 c -2.51574,0 -4.77977,0.431264 -6.79235,1.29346 -2.01259,0.790348 -3.73783,1.903888 -5.17539,3.340882 -3.01889,3.017689 -4.67188,6.969308 -4.95939,11.85509 h 10.67376 c 0.35939,-1.796243 1.11442,-3.16131 2.26446,-4.095357 1.22193,-0.934047 2.55134,-1.400947 3.98891,-1.400947 2.08446,0 3.52225,0.610483 4.31291,1.831929 0.79065,1.221446 1.18605,2.766249 1.18603,4.634342 l -6e-5,5.712313 c -0.57501,-0.07186 -1.11432,-0.108003 -1.61747,-0.108003 -0.50315,0 -0.93406,-0.03564 -1.29345,-0.107488 -0.35939,-0.07186 -0.7547,-0.108004 -1.18598,-0.108004 h -1.18597 c -3.45015,0 -6.2896,0.395111 -8.51783,1.185458 -2.22822,0.718497 -3.98908,1.832553 -5.28288,3.341398 -1.36568,1.580694 -2.3003,3.556246 -2.80345,5.927286 -0.50315,2.299192 -0.75448,4.993689 -0.75448,8.083228 0,3.01769 0.35919,5.496295 1.07798,7.436238 0.79066,1.868095 1.797,3.305469 3.01893,4.311365 1.22193,1.07775 2.47961,1.79618 3.77342,2.15542 1.36568,0.4311 2.69561,0.64648 3.98941,0.64648 2.6595,0 4.7078,-0.5387 6.14537,-1.61644 1.50945,-1.07775 2.98336,-2.622552 4.42092,-4.634345 h 0.21548 v 5.604305 h 10.99727 l 6e-5,-38.044702 c 0,-2.873989 -0.43144,-5.38875 -1.29398,-7.544242 -0.86254,-2.155493 -2.01236,-3.951823 -3.44991,-5.388818 -1.50945,-1.436996 -3.27031,-2.514381 -5.28289,-3.232878 -2.01258,-0.718497 -4.16933,-1.07797 -6.46943,-1.07797 z m 40.00107,0 c -3.45015,0 -6.39746,0.718429 -8.84132,2.155423 -2.37198,1.436996 -4.20457,3.341272 -5.49838,5.712314 -0.79066,1.436995 -1.32996,3.089227 -1.61747,4.95732 -0.28751,1.868093 -0.43149,3.915952 -0.43149,6.143294 v 17.998385 c 0,2.227341 0.14398,4.275201 0.43149,6.143294 0.28751,1.868093 0.82675,3.520325 1.61741,4.95732 1.29381,2.371041 3.1264,4.275318 5.49838,5.71231 2.44386,1.437 5.39117,2.15543 8.84132,2.15543 2.51573,0 4.77976,-0.43127 6.79235,-1.29347 2.01258,-0.86219 3.73789,-2.047521 5.17545,-3.556366 2.94702,-2.94584 4.42041,-6.825667 4.42041,-11.6396 h -10.99726 c -0.14376,1.221445 -0.57521,2.44293 -1.29399,3.664376 -0.6469,1.221446 -2.01245,1.831929 -4.0969,1.831929 -1.65319,0 -2.98313,-0.466901 -3.98943,-1.400948 -0.93441,-0.934047 -1.40146,-2.262959 -1.40146,-3.987353 v -7.436756 h 21.77904 V 63.875688 c 0,-4.885782 -1.4378,-8.945347 -4.31293,-12.178585 -1.43755,-1.508845 -3.19841,-2.694175 -5.28287,-3.556373 -2.01259,-0.862196 -4.27662,-1.29346 -6.79235,-1.29346 z M 188.98433,57.840398 c 1.86882,0 3.23436,0.682791 4.0969,2.047936 0.86254,1.365146 1.29399,3.16096 1.29399,5.388301 v 20.046322 c 0,1.724395 -0.39532,3.233044 -1.18597,4.526339 -0.71879,1.293295 -2.12046,1.939933 -4.20492,1.939933 -1.58132,0 -2.91125,-0.538692 -3.98942,-1.616439 -1.00629,-1.149596 -1.50895,-2.586454 -1.50895,-4.310847 v -21.23178 c 0,-2.011793 0.50266,-3.628387 1.50895,-4.849832 1.00629,-1.293296 2.33622,-1.939933 3.98942,-1.939933 z m 122.69645,0 c 1.65319,0 2.947,0.538692 3.88142,1.616438 1.0063,1.005897 1.50947,2.5507 1.50947,4.634342 v 6.251298 h -10.78178 v -6.251298 c 0,-2.083642 0.46705,-3.628445 1.40145,-4.634342 1.0063,-1.077746 2.33625,-1.616438 3.98944,-1.616438 z M 150.38565,78.3177 c 0.79066,0 1.79701,0.107429 3.01894,0.322978 v 7.436755 c 0,2.227342 -0.5393,3.951882 -1.61747,5.173328 -1.0063,1.221446 -2.44357,1.831929 -4.3124,1.831929 -1.79695,0 -3.19862,-0.646637 -4.20491,-1.939933 -1.0063,-1.293296 -1.50947,-2.981681 -1.50947,-5.065324 0,-2.945839 0.82675,-4.957544 2.47995,-6.035291 1.72508,-1.149595 3.77339,-1.724442 6.14536,-1.724442 z m 123.77401,0 c 0.79066,0 1.79701,0.107429 3.01893,0.322978 v 7.436755 c 0,2.227342 -0.53929,3.951882 -1.61747,5.173328 -1.00629,1.221446 -2.44356,1.831929 -4.3124,1.831929 -1.79694,0 -3.19862,-0.646637 -4.20491,-1.939933 -1.0063,-1.293296 -1.50947,-2.981681 -1.50947,-5.065324 0,-2.945839 0.82677,-4.957544 2.47995,-6.035291 1.72508,-1.149595 3.7734,-1.724442 6.14537,-1.724442 z M 87.3125,113.19257 v 77.04233 h 11.041186 v -34.30126 h 13.639474 v 34.30126 h 11.04119 v -77.04233 h -11.04119 v 33.00264 H 98.353686 v -33.00264 z m 128.0511,0 v 27.15958 h -0.21653 c -1.2268,-1.80342 -2.70651,-3.1741 -4.43849,-4.11189 -1.6598,-1.00992 -3.57215,-1.51515 -5.73711,-1.51515 -2.74229,0 -4.79903,0.46936 -6.17017,1.40715 -2.95879,1.80343 -4.65455,4.50842 -5.08754,8.11526 -0.21649,1.87556 -0.32453,4.79731 -0.32453,8.76484 v 20.88348 c 0,3.02975 0.14438,5.44627 0.43305,7.24969 0.28866,1.80343 0.75765,3.31861 1.40715,4.54494 1.80413,3.46258 5.01544,5.19349 9.63403,5.19349 1.37114,0 2.56157,-0.14399 3.57187,-0.43254 1.01032,-0.28855 1.91248,-0.68566 2.70631,-1.19062 0.79381,-0.50496 1.51574,-1.08193 2.16524,-1.73116 0.64948,-0.72137 1.33507,-1.4787 2.05672,-2.27221 v 4.97747 h 11.04118 v -77.04233 z m 63.50103,21.53254 c -2.52579,0 -4.61837,0.57749 -6.27816,1.73167 -1.58765,1.08206 -2.9588,2.48862 -4.11346,4.21991 h -0.21652 v -5.302 h -11.0417 v 54.86021 h 11.0417 v -36.89801 c 0,-2.45266 0.3968,-4.32857 1.19063,-5.62704 0.79381,-1.29846 2.23717,-1.94768 4.32997,-1.94768 1.73196,0 3.06677,0.57748 4.00492,1.73167 0.93816,1.1542 1.40767,2.74111 1.40767,4.76095 v 37.98011 h 11.04119 v -42.092 c 0,-2.45267 -0.32462,-4.50843 -0.9741,-6.16759 -0.6495,-1.73129 -1.51581,-3.13836 -2.5983,-4.22041 -1.08248,-1.08206 -2.30925,-1.83939 -3.68039,-2.27222 -1.37114,-0.50496 -2.7423,-0.75757 -4.11345,-0.75757 z m 32.83314,0 c -2.74229,0 -4.79902,0.46936 -6.17016,1.40715 -2.9588,1.80343 -4.65455,4.50842 -5.08755,8.11526 -0.21649,1.87556 -0.32504,4.79731 -0.32504,8.76484 v 20.88348 c 0,3.02975 0.14438,5.44627 0.43304,7.24969 0.28866,1.80343 0.75765,3.31861 1.40715,4.54494 1.80414,3.46258 5.01544,5.19349 9.63404,5.19349 2.23713,0 4.18583,-0.46885 5.84564,-1.40664 1.73197,-1.00991 3.21116,-2.41646 4.43797,-4.21989 h 0.21653 v 10.82052 c 0,1.73129 -0.3968,3.13784 -1.19063,4.2199 -0.79383,1.1542 -2.09278,1.73168 -3.89692,1.73168 -1.8763,0 -3.31965,-0.57748 -4.32997,-1.73168 -0.93816,-1.15419 -1.44304,-2.38038 -1.51515,-3.67885 h -11.0417 c 0.36082,3.24617 1.08275,5.87891 2.16524,7.89875 1.15464,2.09197 2.52579,3.75115 4.11344,4.97747 1.51548,1.29847 3.17488,2.20031 4.97902,2.70527 1.80414,0.57708 3.53627,0.86558 5.19607,0.86558 2.88662,0 5.37651,-0.50472 7.46931,-1.51464 2.0928,-0.93779 3.82493,-2.20035 5.19607,-3.78737 1.37114,-1.51488 2.34498,-3.24629 2.9223,-5.194 0.64949,-1.87555 0.97462,-3.75097 0.97462,-5.62653 v -61.56884 h -11.0417 v 4.97746 c -0.72166,-0.79351 -1.40724,-1.51497 -2.05673,-2.1642 -0.6495,-0.72137 -1.37091,-1.33473 -2.16473,-1.83969 -0.79382,-0.50496 -1.69597,-0.90155 -2.70629,-1.1901 -0.93816,-0.28855 -2.09273,-0.43305 -3.46387,-0.43305 z m -182.78419,0.64958 14.28905,54.86021 h 9.74204 l 14.28905,-54.86021 h -11.69076 l -7.36079,35.05831 h -0.21652 l -7.36131,-35.05831 z m 43.57464,0 v 54.86021 h 10.99768 v -54.86021 z m 63.82809,0 v 54.86021 h 11.00587 l -0.0169,-54.86021 z M 209.843,145.76217 c 1.58765,0 2.88661,0.57748 3.89692,1.73167 1.08249,1.08206 1.62368,2.48861 1.62368,4.2199 v 21.31652 c 0,2.01984 -0.50536,3.67902 -1.51567,4.97748 -1.01032,1.22633 -2.34512,1.83917 -4.00493,1.83917 -1.8763,0 -3.24746,-0.6851 -4.11344,-2.0557 -0.86599,-1.37061 -1.29915,-3.17427 -1.29915,-5.41052 v -20.1259 c 0,-1.73128 0.36098,-3.24647 1.08263,-4.54494 0.79382,-1.29846 2.23716,-1.94768 4.32996,-1.94768 z m 106.72579,0 c 1.6598,0 2.99513,0.64922 4.00544,1.94768 1.01032,1.22633 1.51516,2.84963 1.51516,4.86947 v 21.31652 c 0,1.73129 -0.5412,3.17422 -1.62367,4.32843 -1.01031,1.08205 -2.30929,1.62264 -3.89693,1.62264 -2.0928,0 -3.53614,-0.64922 -4.32997,-1.94769 -0.72165,-1.29846 -1.0821,-2.81314 -1.0821,-4.54442 v -20.12643 c 0,-2.23625 0.43263,-4.0394 1.29862,-5.41 0.86599,-1.3706 2.23716,-2.0562 4.11345,-2.0562 z"
       sodipodi:nodetypes="cccccccccssccccsssssccscscsccccccsccccccscccsccscccsccscscccssscsssscccscccscccccsscssssccccccccscsssscsscscccssscsssscccscccscccccsscsssccssssccssccccscsccsccssssscscsscsscsccscsscscssscsscscssscscccccccccccccccccsccssscsssccccccscccccccsssssccscscssccssscscccscsccccccscccsccccscscccccccccccccccccccscsscsssscsscsscscssss" />
  </g>
</svg>
